<?xml version="1.0" standalone="no"?>
<!DOCTYPE svg PUBLIC "-//W3C//DTD SVG 20010904//EN"
 "http://www.w3.org/TR/2001/REC-SVG-20010904/DTD/svg10.dtd">
<svg version="1.0" xmlns="http://www.w3.org/2000/svg"
 width="32.000000pt" height="32.000000pt" viewBox="0 0 152.000000 152.000000"
 preserveAspectRatio="xMidYMid meet">
<metadata>
Circlead logo
</metadata>
<g transform="translate(0.000000,152.000000) scale(0.050000,-0.050000)"
fill="#fff" stroke="none">
<path d="M1424 2897 c-487 -55 -876 -351 -1114 -847 -300 -626 -211 -1106 264
-1421 64 -42 168 -111 231 -154 491 -331 1127 -308 1483 54 619 629 709 826
567 1238 -28 78 -59 193 -71 255 -106 571 -696 951 -1360 875z m479 -106 c321
-68 617 -306 748 -602 73 -165 58 -180 -18 -19 -185 393 -939 677 -1472 553
-105 -24 -132 -14 -49 18 199 77 556 100 791 50z m-63 -174 c220 -52 467 -171
597 -288 151 -136 126 -146 -54 -20 -685 480 -1534 367 -1946 -259 -110 -167
-122 -152 -24 30 279 516 754 695 1427 537z m-54 -116 c269 -69 684 -308 797
-461 154 -207 35 -993 -180 -1182 -607 -534 -1517 -453 -1820 163 -410 834
302 1710 1203 1480z m-1346 -655 c-133 -429 -23 -842 314 -1176 96 -94 105
-109 53 -83 -349 175 -574 897 -400 1281 67 148 83 138 33 -22z m-169 -331 c1
-253 37 -390 161 -601 78 -134 84 -155 28 -104 -194 175 -285 521 -218 829 28
133 28 135 29 -124z m2558 -65 c-19 -131 -65 -254 -131 -350 -67 -97 -67 -92
10 90 27 66 61 181 74 256 26 145 68 149 47 4z m-669 -934 c-202 -170 -672
-248 -940 -156 l-110 39 90 -15 c317 -50 677 3 920 136 91 50 102 49 40 -4z"/>
</g>
</svg>
